<svg xmlns="http://www.w3.org/2000/svg" viewBox="0 0 512 512" role="img" aria-labelledby="title desc">
  <title id="title">Maison du Bois</title>
  <desc id="desc">Logo rond avec une feuille, un soleil et une coupe en bois.</desc>
  <defs>
    <linearGradient id="wood" x1="120" y1="80" x2="390" y2="440" gradientUnits="userSpaceOnUse">
      <stop offset="0" stop-color="#d19a62"/>
      <stop offset=".45" stop-color="#9c5a2e"/>
      <stop offset="1" stop-color="#5f3017"/>
    </linearGradient>
    <filter id="soft" x="-20%" y="-20%" width="140%" height="140%">
      <feDropShadow dx="0" dy="14" stdDeviation="12" flood-color="#140c07" flood-opacity=".38"/>
    </filter>
  </defs>
  <circle cx="256" cy="256" r="212" fill="none" stroke="url(#wood)" stroke-width="18" filter="url(#soft)"/>
  <circle cx="336" cy="164" r="38" fill="url(#wood)" filter="url(#soft)"/>
  <path d="M198 378c22-96-28-194 72-274 12-9 22-6 15 6-46 76-25 161-75 239-4 6-8 15-12 29Z" fill="url(#wood)" filter="url(#soft)"/>
  <path d="M168 348c64 18 152 10 226-28 8-4 16 2 10 10-47 68-178 90-252 39-8-5-5-26 16-21Z" fill="url(#wood)" filter="url(#soft)"/>
  <path d="M205 120c-48 76-54 171-20 250" fill="none" stroke="#e3b47b" stroke-width="5" stroke-linecap="round" opacity=".42"/>
  <path d="M177 356c56 18 145 9 219-34" fill="none" stroke="#e3b47b" stroke-width="5" stroke-linecap="round" opacity=".36"/>
</svg>
